<?xml version="1.0" standalone="no"?><!DOCTYPE svg PUBLIC "-//W3C//DTD SVG 1.1//EN" "http://www.w3.org/Graphics/SVG/1.1/DTD/svg11.dtd"><svg t="1536303287850" class="icon" style="" viewBox="0 0 1024 1024" version="1.1" xmlns="http://www.w3.org/2000/svg" p-id="3125" xmlns:xlink="http://www.w3.org/1999/xlink" width="12" height="12"><defs><style type="text/css"></style></defs><path d="M409.7 768h204.6L512 529.3z" p-id="3126" fill="#8a8a8a"></path><path d="M896 320h-64C832 143.3 688.7 0 512 0S192 143.3 192 320h-64C57.3 320 0 377.3 0 448v448c0 70.7 57.3 128 128 128h768c70.7 0 128-57.3 128-128V448c0-70.7-57.3-128-128-128zM512 128c105.9 0 192 86.1 192 192H320c0-105.9 86.1-192 192-192z m204.6 797.4c-4.1 1.8-8.4 2.6-12.6 2.6-12.4 0-24.2-7.3-29.4-19.4l-33-76.9c-0.6 0-1 0.3-1.6 0.3H384c-0.6 0-1.1-0.3-1.6-0.3l-33 76.9c-6.9 16.3-25.8 23.8-42 16.8-16.3-7-23.8-25.8-16.8-42l192-448c10.1-23.6 48.8-23.6 58.8 0l192 448c7 16.2-0.6 35-16.8 42z" p-id="3127" fill="#8a8a8a"></path></svg>