<?xml version="1.0" standalone="no"?><!DOCTYPE svg PUBLIC "-//W3C//DTD SVG 1.1//EN" "http://www.w3.org/Graphics/SVG/1.1/DTD/svg11.dtd"><svg t="1535690065876" class="icon" style="" viewBox="0 0 1024 1024" version="1.1" xmlns="http://www.w3.org/2000/svg" p-id="7161" xmlns:xlink="http://www.w3.org/1999/xlink" width="16" height="16"><defs><style type="text/css"></style></defs><path d="M864.30437 625.571638l-77.508281 0L786.796088 495.342622l-0.972141 0 0-0.980327L530.019911 494.362294 530.019911 394.579707l77.506235 0c35.956933 0 65.211211-29.318746 65.211211-65.360614L672.737356 156.865677c0-36.038798-29.254278-65.35959-65.211211-65.35959L403.305951 91.506087c-35.95898 0-65.213257 29.320793-65.213257 65.35959l0 172.353416c0 36.040844 29.254278 65.360614 65.213257 65.360614l82.368986 0 0 99.783611L218.257397 494.363318l0 0.980327 0 47.560202 0 84.619236-62.637596 0c-35.956933 0-65.211211 29.322839-65.211211 65.36266l0 172.352393c0 36.040844 29.254278 65.358567 65.211211 65.358567l204.214055 0c35.95898 0 65.213257-29.317723 65.213257-65.358567L425.047114 692.885743c0-36.039821-29.254278-65.36266-65.213257-65.36266l-96.264461 0 0-84.619236 476.954833 0 0 82.668815-80.431867 0c-35.960003 0-65.211211 29.321816-65.211211 65.36266l0 172.356486c0 36.035728 29.251208 65.358567 65.211211 65.358567l204.213032 0c35.960003 0 65.211211-29.322839 65.211211-65.358567L929.516604 690.934299C929.51558 654.894478 900.264373 625.571638 864.30437 625.571638zM386.144082 329.219093 386.144082 156.865677c0-9.484002 7.699356-17.197684 17.161868-17.197684l204.220195 0c9.460466 0 17.160845 7.714705 17.160845 17.197684l0 172.353416c0 9.484002-7.699356 17.201777-17.160845 17.201777L403.305951 346.420871C393.843438 346.420871 386.144082 338.703095 386.144082 329.219093zM376.993678 692.885743l0 172.352393c0 9.484002-7.699356 17.201777-17.160845 17.201777L155.619802 882.439914c-9.463536 0-17.161868-7.717775-17.161868-17.201777L138.457934 692.885743c0-9.487072 7.699356-17.199731 17.161868-17.199731l204.214055 0C369.294322 675.686013 376.993678 683.397648 376.993678 692.885743zM881.468285 863.290785c0 9.484002-7.699356 17.195637-17.162892 17.195637L660.092361 880.486422c-9.462512 0-17.161868-7.711636-17.161868-17.195637L642.930493 690.934299c0-9.487072 7.698333-17.201777 17.161868-17.201777l204.213032 0c9.463536 0 17.162892 7.713682 17.162892 17.201777L881.468285 863.290785z" p-id="7162" fill="#8a8a8a"></path></svg>